<svg width="42" height="42" viewBox="0 0 42 42" fill="none" xmlns="http://www.w3.org/2000/svg">
<rect width="42" height="42" fill="white"/>
<path d="M31.5 5.25V35.1094L22.1812 30.3975L21 29.8069L19.8188 30.3975L10.5 35.1094V5.25H31.5ZM31.5 2.625H10.5C9.80381 2.625 9.13613 2.90156 8.64384 3.39384C8.15156 3.88613 7.875 4.55381 7.875 5.25V39.375L21 32.8125L34.125 39.375V5.25C34.125 4.55381 33.8484 3.88613 33.3562 3.39384C32.8639 2.90156 32.1962 2.625 31.5 2.625Z" fill="black"/>
<path d="M7.875 7.21865V38.2257C7.87486 38.4252 7.92418 38.6212 8.01812 38.7945C8.11205 38.9679 8.24735 39.1125 8.4107 39.2143C8.57405 39.316 8.75982 39.3714 8.94973 39.3748C9.13963 39.3783 9.32713 39.3298 9.49375 39.2341L21 32.6422L32.5063 39.2341C32.6729 39.3298 32.8604 39.3783 33.0503 39.3748C33.2402 39.3714 33.4259 39.316 33.5893 39.2143C33.7527 39.1125 33.888 38.9679 33.9819 38.7945C34.0758 38.6212 34.1251 38.4252 34.125 38.2257V7.21865C34.125 6.00033 33.6641 4.83192 32.8436 3.97045C32.0231 3.10897 30.9103 2.625 29.75 2.625H12.25C11.0897 2.625 9.97688 3.10897 9.15641 3.97045C8.33594 4.83192 7.875 6.00033 7.875 7.21865Z" fill="#2D2D2D"/>
</svg>
