<svg width="18" height="24" viewBox="0 0 18 24" fill="none" xmlns="http://www.w3.org/2000/svg">
<path d="M9 0.333313C4.485 0.333313 0.833328 3.98498 0.833328 8.49998C0.833328 14.625 9 23.6666 9 23.6666C9 23.6666 17.1667 14.625 17.1667 8.49998C17.1667 3.98498 13.515 0.333313 9 0.333313ZM9 11.4166C8.22645 11.4166 7.48458 11.1094 6.9376 10.5624C6.39062 10.0154 6.08333 9.27353 6.08333 8.49998C6.08333 7.72643 6.39062 6.98457 6.9376 6.43759C7.48458 5.8906 8.22645 5.58331 9 5.58331C9.77354 5.58331 10.5154 5.8906 11.0624 6.43759C11.6094 6.98457 11.9167 7.72643 11.9167 8.49998C11.9167 9.27353 11.6094 10.0154 11.0624 10.5624C10.5154 11.1094 9.77354 11.4166 9 11.4166Z" fill="#2D2D2D"/>
</svg>
