<svg width="28" height="28" viewBox="0 0 28 28" fill="none" xmlns="http://www.w3.org/2000/svg">
<path d="M24.5 5.83333C23.205 5.425 21.7817 5.25 20.4167 5.25C18.1417 5.25 15.6917 5.71667 14 7C12.3083 5.71667 9.85832 5.25 7.58332 5.25C5.30832 5.25 2.85832 5.71667 1.16666 7V24.0917C1.16666 24.3833 1.45832 24.675 1.74999 24.675C1.86666 24.675 1.92499 24.6167 2.04166 24.6167C3.61666 23.8583 5.89166 23.3333 7.58332 23.3333C9.85832 23.3333 12.3083 23.8 14 25.0833C15.575 24.0917 18.4333 23.3333 20.4167 23.3333C22.3417 23.3333 24.325 23.6833 25.9583 24.5583C26.075 24.6167 26.1333 24.6167 26.25 24.6167C26.5417 24.6167 26.8333 24.325 26.8333 24.0333V7C26.1333 6.475 25.375 6.125 24.5 5.83333ZM3.49999 21.5833V8.16667C4.78332 7.75833 6.18332 7.58333 7.58332 7.58333C9.14666 7.58333 11.235 8.06167 12.8333 8.73833V22.155C11.235 21.4783 9.14666 21 7.58332 21C6.18332 21 4.78332 21.175 3.49999 21.5833ZM24.5 21.5833C23.2167 21.175 21.8167 21 20.4167 21C18.8533 21 16.765 21.4783 15.1667 22.155V8.73833C16.765 8.05 18.8533 7.58333 20.4167 7.58333C21.8167 7.58333 23.2167 7.75833 24.5 8.16667V21.5833Z" fill="black"/>
<path opacity="0.3" d="M12.8333 8.73831C11.235 8.06165 9.14667 7.58331 7.58333 7.58331C6.18333 7.58331 4.78333 7.75831 3.5 8.16665V21.5833C4.78333 21.175 6.18333 21 7.58333 21C9.14667 21 11.235 21.4783 12.8333 22.155V8.73831Z" fill="black"/>
<path d="M20.4167 12.25C21.4433 12.25 22.435 12.355 23.3333 12.5533V10.78C22.4117 10.605 21.42 10.5 20.4167 10.5C18.9233 10.5 17.5467 10.6867 16.3333 11.0483V12.88C17.4883 12.4717 18.8767 12.25 20.4167 12.25ZM20.4167 15.3533C21.4433 15.3533 22.435 15.4583 23.3333 15.6567V13.8833C22.4117 13.7083 21.42 13.6033 20.4167 13.6033C18.9233 13.6033 17.5467 13.79 16.3333 14.1517V15.9833C17.4883 15.5867 18.8767 15.3533 20.4167 15.3533ZM20.4167 18.4683C21.4433 18.4683 22.435 18.5733 23.3333 18.7717V16.9983C22.4117 16.8233 21.42 16.7183 20.4167 16.7183C18.9233 16.7183 17.5467 16.905 16.3333 17.2667V19.0983C17.4883 18.69 18.8767 18.4683 20.4167 18.4683Z" fill="black"/>
</svg>
