<svg width="42" height="42" viewBox="0 0 42 42" fill="none" xmlns="http://www.w3.org/2000/svg">
<path d="M36.8621 7.35392L36.8059 7.31881L29.7025 3.81927L22.0356 14.0418L25.563 18.7452C25.4574 20.519 24.7052 22.1925 23.4488 23.449C22.1923 24.7054 20.5187 25.4576 18.745 25.5631L14.0416 22.0358L3.81921 29.7025L7.28963 36.7465L7.31883 36.8059L7.35402 36.862C7.53922 37.1604 7.79771 37.4065 8.10489 37.5767C8.41207 37.747 8.75771 37.8358 9.10892 37.8347H10.9418C14.4734 37.8347 17.9705 37.1391 21.2333 35.7876C24.4961 34.4361 27.4607 32.4552 29.9579 29.9579C32.4552 27.4607 34.4361 24.4961 35.7875 21.2333C37.139 17.9705 37.8346 14.4734 37.8346 10.9418V9.10881C37.8357 8.75762 37.747 8.41198 37.5767 8.1048C37.4065 7.79762 37.1605 7.53912 36.8621 7.35392ZM35.2096 10.9418C35.2096 24.3232 24.3231 35.2097 10.9418 35.2097H9.4587L7.13672 30.4959L14.0421 25.3169L17.8867 28.2002H18.3241C20.9427 28.1973 23.4531 27.1558 25.3047 25.3042C27.1563 23.4526 28.1978 20.9422 28.2007 18.3236V17.8862L25.3174 14.0417L30.4959 7.1367L35.2096 9.45909V10.9418Z" fill="black"/>
</svg>
