<svg width="24" height="24" viewBox="0 0 24 24" fill="none" xmlns="http://www.w3.org/2000/svg">
<path d="M21.3333 0.333313H2.66665C1.38331 0.333313 0.34498 1.38331 0.34498 2.66665L0.333313 23.6666L4.99998 19H21.3333C22.6166 19 23.6666 17.95 23.6666 16.6666V2.66665C23.6666 1.38331 22.6166 0.333313 21.3333 0.333313ZM21.3333 16.6666H4.03165L3.34331 17.355L2.66665 18.0316V2.66665H21.3333V16.6666ZM10.25 14.3333H19V12H12.5833L10.25 14.3333ZM14.7533 7.48498C14.9866 7.25165 14.9866 6.88998 14.7533 6.65665L12.6883 4.59165C12.455 4.35831 12.0933 4.35831 11.86 4.59165L4.99998 11.4516V14.3333H7.88165L14.7533 7.48498Z" fill="#2D2D2D"/>
</svg>
