<svg width="29" height="28" viewBox="0 0 29 28" fill="none" xmlns="http://www.w3.org/2000/svg">
<path d="M28.3968 25.9874L19.3073 16.8979C20.7178 15.0744 21.4808 12.8449 21.4808 10.5C21.4808 7.69297 20.3853 5.06098 18.4043 3.07649C16.4233 1.092 13.7843 0 10.9808 0C8.17736 0 5.53837 1.0955 3.55738 3.07649C1.57289 5.05748 0.480896 7.69297 0.480896 10.5C0.480896 13.3034 1.57639 15.9424 3.55738 17.9234C5.53837 19.9079 8.17386 20.9999 10.9808 20.9999C13.3258 20.9999 15.5518 20.2369 17.3753 18.8299L26.4648 27.9159C26.4914 27.9425 26.5231 27.9637 26.5579 27.9781C26.5927 27.9926 26.6301 28 26.6678 28C26.7055 28 26.7428 27.9926 26.7777 27.9781C26.8125 27.9637 26.8441 27.9425 26.8708 27.9159L28.3968 26.3934C28.4234 26.3667 28.4446 26.3351 28.459 26.3003C28.4735 26.2654 28.4809 26.2281 28.4809 26.1904C28.4809 26.1527 28.4735 26.1153 28.459 26.0805C28.4446 26.0457 28.4234 26.014 28.3968 25.9874ZM16.5248 16.0439C15.0408 17.5244 13.0738 18.3399 10.9808 18.3399C8.88786 18.3399 6.92087 17.5244 5.43687 16.0439C3.95638 14.5599 3.14088 12.5929 3.14088 10.5C3.14088 8.40696 3.95638 6.43647 5.43687 4.95598C6.92087 3.47549 8.88786 2.65999 10.9808 2.65999C13.0738 2.65999 15.0443 3.47199 16.5248 4.95598C18.0053 6.43997 18.8208 8.40696 18.8208 10.5C18.8208 12.5929 18.0053 14.5634 16.5248 16.0439Z" fill="rgb(108,108,108)"/>
</svg>
